<svg xmlns="http://www.w3.org/2000/svg" viewBox="0 0 1200 675" role="img" aria-label="ตึก SC3 mock visual">
  <defs>
    <linearGradient id="g" x1="0" y1="0" x2="1" y2="1"><stop stop-color="#7f1d1d"/><stop offset="1" stop-color="#c2410c"/></linearGradient>
    <radialGradient id="r"><stop stop-color="#fff" stop-opacity=".28"/><stop offset="1" stop-color="#fff" stop-opacity="0"/></radialGradient>
  </defs>
  <rect width="1200" height="675" fill="url(#g)"/>
  <circle cx="970" cy="120" r="260" fill="url(#r)"/>
  <path d="M80 520h1040v70H80z" fill="#15130f" opacity=".32"/>
  <path d="M190 500V290h820v210M250 290l110-100h480l110 100M310 500V340h120v160M480 500V340h240v160M770 500V340h120v160" fill="none" stroke="#fff8e7" stroke-width="22" opacity=".75"/>
  <path d="M120 120c170 20 210 140 345 90 80-30 110-130 230-120 110 10 150 100 285 75" fill="none" stroke="#f6c56b" stroke-width="12" stroke-linecap="round" opacity=".8"/>
  <text x="80" y="95" fill="#fff8e7" font-family="Arial,sans-serif" font-size="30" font-weight="700" letter-spacing="5">FATU OPEN HOUSE 2026 · MOCK VISUAL</text>
  <text x="80" y="610" fill="#fff8e7" font-family="Arial,sans-serif" font-size="62" font-weight="700">ตึก SC3</text>
  <text x="1120" y="610" text-anchor="end" fill="#fff8e7" font-family="Arial,sans-serif" font-size="28" opacity=".85">Red Phoenix</text>
</svg>